<svg xmlns="http://www.w3.org/2000/svg" width="674" height="89.303" viewBox="0 0 674 89.303">
  <g fill="#FCDA00">
    <path d="M69.227 6.087L66.254 3.61c-2.013-1.677-4.06-2.527-6.083-2.527H20.286c-2.022 0-4.07.85-6.082 2.527L11.23 6.087c-2.024 1.688-3.05 3.827-3.05 6.356v64.415c0 2.53 1.025 4.668 3.05 6.355l2.973 2.477c2.01 1.676 4.057 2.528 6.082 2.528H60.17c2.027 0 4.073-.853 6.084-2.528l2.974-2.477c2.023-1.69 3.05-3.825 3.05-6.355v-5.172H61.79l-.018.195c-.15 1.69-.42 4.467-.505 4.72-.075.23-.35.646-1.228 1.326-.72.56-1.28.9-1.667 1.015-.27.083-.975.183-2.785.183h-30.72c-1.813 0-2.517-.1-2.788-.182-.385-.114-.945-.454-1.664-1.014-.88-.682-1.153-1.097-1.23-1.326-.08-.24-.175-.84-.175-2.347V15.046c0-1.504.097-2.105.177-2.348.074-.225.348-.637 1.23-1.322.72-.56 1.28-.902 1.664-1.018.39-.117 1.325-.177 2.788-.177h30.72c1.46 0 2.396.06 2.785.178.385.115.945.458 1.666 1.018.877.684 1.15 1.097 1.227 1.324.085.252.354 3.028.505 4.72l.018.194h10.486v-5.17c0-2.53-1.025-4.668-3.05-6.357zM158 6.087l-2.973-2.477c-2.013-1.677-4.058-2.527-6.082-2.527H103.61c-2.023 0-4.07.85-6.084 2.527l-2.973 2.477c-2.023 1.69-3.05 3.828-3.05 6.356v64.415c0 2.53 1.026 4.667 3.05 6.355l2.973 2.477c2.012 1.676 4.06 2.528 6.084 2.528h45.335c2.026 0 4.073-.853 6.082-2.528L158 83.213c2.024-1.688 3.05-3.823 3.05-6.355V12.443c0-2.53-1.026-4.67-3.05-6.356zm-55.66 8.96c0-1.214.058-2.003.173-2.348.075-.227.35-.64 1.23-1.324.72-.56 1.28-.902 1.664-1.018.387-.117 1.323-.177 2.787-.177h36.17c1.46 0 2.396.06 2.786.178.385.116.945.46 1.664 1.018.88.684 1.155 1.097 1.23 1.323.115.344.174 1.134.174 2.346v59.208c0 1.213-.06 2.003-.174 2.347-.076.23-.352.647-1.23 1.327-.717.56-1.277.9-1.664 1.015-.272.082-.976.182-2.786.182h-36.17c-1.814 0-2.517-.1-2.788-.182-.385-.115-.945-.455-1.664-1.015-.88-.682-1.152-1.098-1.23-1.326-.114-.342-.173-1.132-.173-2.346V15.046zM247.266 14.513l-11.89-10.896c-1.85-1.68-3.898-2.533-6.092-2.533H183.24V88.22h46.044c2.195 0 4.246-.855 6.092-2.536l11.882-10.887c2.024-1.683 3.05-3.404 3.05-5.118V19.623c0-1.71-1.026-3.434-3.042-5.11zm-53.193-4.33h30.753c2.08 0 4.032.813 5.797 2.412l5.954 5.953c1.923 1.602 2.898 3.213 2.898 4.79v42.626c0 1.578-.976 3.19-2.912 4.803L230.63 76.7c-1.772 1.606-3.725 2.423-5.804 2.423h-30.753v-68.94zM270.34 88.22h55.917v-9.097h-45.085v-30.54h38.15V39.48h-38.15V10.183h45.085v-9.1H270.34M357.832 1.083H347V88.22h53.937v-9.097h-43.105M444.093 1.083l-29.774 86.85-.1.286h10.858l6.19-17.96h40.944l6.393 17.815.05.144h10.858L459.016 1.082h-14.923zm7.426 7.86h.073c.04.97.335 2.13.874 3.446l16.998 49.385h-35.45L450.64 12.4c.546-1.326.84-2.487.88-3.456zM564.022 65.83c0 1.937.275 3.89.816 5.81l-.017.005-45.246-70.463-.062-.1h-10.734V88.22h10.83V24.46c0-1.922-.274-3.875-.817-5.808l.024-.007 45.244 69.475.062.1h10.735V1.082h-10.833V65.83zM662.778 14.513L650.886 3.616c-1.853-1.68-3.9-2.533-6.09-2.533H598.75V88.22h46.046c2.19 0 4.24-.855 6.09-2.537l11.885-10.887c2.023-1.687 3.05-3.408 3.05-5.118V19.624c-.002-1.707-1.027-3.43-3.042-5.11zm-53.198-4.33h30.753c2.08 0 4.034.813 5.797 2.412l5.96 5.953c1.922 1.604 2.897 3.217 2.897 4.79v42.626c0 1.575-.976 3.188-2.91 4.803l-5.94 5.934c-1.77 1.607-3.724 2.424-5.804 2.424H609.58V10.182z"/>
  </g>
</svg>
