<?xml version="1.0" encoding="utf-8"?>
<!-- Generator: Adobe Illustrator 16.0.0, SVG Export Plug-In . SVG Version: 6.00 Build 0)  -->
<!DOCTYPE svg PUBLIC "-//W3C//DTD SVG 1.1//EN" "http://www.w3.org/Graphics/SVG/1.1/DTD/svg11.dtd">
<svg version="1.1" id="Layer_1" xmlns="http://www.w3.org/2000/svg" xmlns:xlink="http://www.w3.org/1999/xlink" x="0px" y="0px"
	 width="674px" height="89.303px" viewBox="0 0 674 89.303" enable-background="new 0 0 674 89.303" xml:space="preserve">
<g>
	<path fill="#FCDA00" d="M69.227,6.087L66.254,3.61c-2.013-1.677-4.06-2.527-6.083-2.527H20.285c-2.022,0-4.069,0.851-6.082,2.527
		l-2.974,2.477c-2.023,1.688-3.049,3.827-3.049,6.356v64.415c0,2.531,1.025,4.668,3.049,6.355l2.974,2.477
		c2.011,1.676,4.057,2.528,6.082,2.528h39.886c2.026,0,4.072-0.853,6.083-2.528l2.974-2.477c2.023-1.689,3.049-3.825,3.049-6.355
		v-5.172H61.79l-0.018,0.195c-0.15,1.689-0.42,4.466-0.505,4.719c-0.075,0.23-0.351,0.646-1.228,1.326
		c-0.719,0.559-1.279,0.899-1.666,1.015c-0.271,0.082-0.975,0.182-2.785,0.182h-30.72c-1.813,0-2.517-0.1-2.788-0.182
		c-0.385-0.115-0.945-0.455-1.664-1.015c-0.879-0.682-1.153-1.097-1.229-1.326c-0.08-0.239-0.176-0.841-0.176-2.347V15.046
		c0-1.504,0.096-2.105,0.176-2.348c0.074-0.225,0.348-0.637,1.229-1.322c0.721-0.56,1.281-0.902,1.665-1.018
		c0.388-0.117,1.324-0.177,2.787-0.177h30.72c1.46,0,2.396,0.06,2.785,0.177c0.385,0.115,0.945,0.458,1.666,1.018
		c0.878,0.684,1.152,1.097,1.228,1.324c0.085,0.252,0.354,3.028,0.505,4.719l0.018,0.195h10.486v-5.171
		C72.276,9.915,71.251,7.776,69.227,6.087z"/>
	<path fill="#FCDA00" d="M158.001,6.087l-2.974-2.477c-2.013-1.677-4.058-2.527-6.082-2.527H103.61c-2.023,0-4.07,0.851-6.084,2.527
		l-2.973,2.477c-2.023,1.689-3.049,3.828-3.049,6.356v64.415c0,2.53,1.025,4.667,3.049,6.355l2.973,2.477
		c2.012,1.676,4.059,2.528,6.084,2.528h45.335c2.026,0,4.073-0.853,6.082-2.528l2.974-2.477c2.023-1.688,3.05-3.823,3.05-6.355
		V12.443C161.051,9.913,160.024,7.774,158.001,6.087z M102.339,15.046c0-1.213,0.059-2.002,0.174-2.347
		c0.075-0.226,0.35-0.638,1.229-1.323c0.721-0.561,1.281-0.902,1.665-1.018c0.387-0.117,1.323-0.177,2.787-0.177h36.17
		c1.46,0,2.396,0.06,2.786,0.177c0.385,0.116,0.945,0.459,1.664,1.018c0.88,0.684,1.155,1.097,1.23,1.323
		c0.115,0.345,0.174,1.135,0.174,2.347v59.208c0,1.213-0.059,2.003-0.174,2.347c-0.076,0.23-0.352,0.646-1.23,1.326
		c-0.717,0.559-1.277,0.899-1.664,1.015c-0.272,0.082-0.976,0.182-2.786,0.182h-36.17c-1.814,0-2.517-0.1-2.788-0.182
		c-0.385-0.115-0.945-0.455-1.664-1.015c-0.879-0.682-1.152-1.098-1.229-1.326c-0.115-0.343-0.174-1.133-0.174-2.347V15.046z"/>
	<path fill="#FCDA00" d="M247.266,14.513l-11.89-10.896c-1.849-1.681-3.898-2.533-6.092-2.533h-46.043v87.136h46.043
		c2.195,0,4.246-0.855,6.092-2.536l11.882-10.887c2.024-1.683,3.051-3.404,3.051-5.118V19.624
		C250.309,17.913,249.282,16.19,247.266,14.513z M194.073,10.182h30.753c2.08,0,4.032,0.814,5.797,2.413l5.954,5.953
		c1.923,1.602,2.898,3.213,2.898,4.791v42.625c0,1.578-0.976,3.189-2.912,4.803L230.63,76.7c-1.772,1.606-3.725,2.423-5.804,2.423
		h-30.753V10.182z"/>
	<polygon fill="#FCDA00" points="270.339,88.219 326.257,88.219 326.257,79.123 281.172,79.123 281.172,48.583 319.322,48.583 
		319.322,39.481 281.172,39.481 281.172,10.182 326.257,10.182 326.257,1.083 270.339,1.083 	"/>
	<polygon fill="#FCDA00" points="357.832,1.083 346.999,1.083 346.999,88.219 400.937,88.219 400.937,79.123 357.832,79.123 	"/>
	<path fill="#FCDA00" d="M444.093,1.083l-29.774,86.851l-0.099,0.285h10.858l6.19-17.959h40.944l6.393,17.815l0.051,0.144h10.857
		L459.016,1.083H444.093z M451.519,8.944h0.074c0.039,0.969,0.335,2.129,0.874,3.445l16.998,49.386h-35.449l16.622-49.374
		C451.184,11.074,451.479,9.913,451.519,8.944z"/>
	<path fill="#FCDA00" d="M564.022,65.831c0,1.936,0.275,3.888,0.816,5.808l-0.017,0.006L519.574,1.182l-0.062-0.099h-10.734v87.136
		h10.831V24.46c0-1.922-0.275-3.875-0.818-5.808l0.023-0.007l45.244,69.475l0.062,0.099h10.735V1.083h-10.833V65.831z"/>
	<path fill="#FCDA00" d="M662.778,14.513L650.886,3.616c-1.853-1.681-3.901-2.533-6.09-2.533H598.75v87.136h46.046
		c2.191,0,4.24-0.854,6.09-2.536l11.885-10.887c2.022-1.687,3.048-3.408,3.048-5.118V19.624
		C665.818,17.917,664.793,16.194,662.778,14.513z M609.58,10.182h30.753c2.081,0,4.034,0.814,5.797,2.413l5.959,5.953
		c1.923,1.604,2.898,3.217,2.898,4.791v42.625c0,1.575-0.976,3.188-2.911,4.803l-5.94,5.934c-1.77,1.606-3.723,2.423-5.803,2.423
		H609.58V10.182z"/>
</g>
</svg>
