<?xml version="1.0" encoding="utf-8"?>
<!-- Generator: Adobe Illustrator 16.0.0, SVG Export Plug-In . SVG Version: 6.00 Build 0)  -->
<svg version="1.1" id="Layer_1" xmlns="http://www.w3.org/2000/svg" xmlns:xlink="http://www.w3.org/1999/xlink" x="0px" y="0px" width="221.103px" height="247.109px" viewBox="0 0 221.103 247.109" enable-background="new 0 0 221.103 247.109" xml:space="preserve">
<g>
	<g>
		<path fill="#FCDA00" d="M201.653,210.344c-1.845,0-3.439-1.31-3.789-3.133l-18.484-96.415c-0.265-1.383,0.243-2.799,1.326-3.697    l34.07-28.275c1.219-1.012,2.932-1.175,4.32-0.414s2.172,2.292,1.977,3.863l-15.588,124.69c-0.235,1.884-1.807,3.317-3.705,3.38    C201.737,210.344,201.696,210.344,201.653,210.344z M187.392,111.583l13.461,70.206l11.35-90.796L187.392,111.583z" />
	</g>
	<g>
		<path fill="#FCDA00" d="M201.653,210.345c-0.219,0-0.439-0.019-0.658-0.058l-57.754-9.998c-1.179-0.203-2.196-0.941-2.756-1.998    c-0.559-1.057-0.596-2.313-0.102-3.402l39.271-86.417c0.695-1.53,2.301-2.438,3.971-2.236c1.67,0.199,3.018,1.455,3.335,3.106    l18.41,96.031c0.104,0.352,0.162,0.725,0.162,1.111c0,2.131-1.728,3.859-3.86,3.859    C201.667,210.345,201.66,210.345,201.653,210.345z M149.48,193.534l47.331,8.194l-15.148-79.015L149.48,193.534z" />
	</g>
	<g>
		<path fill="#FCDA00" d="M183.169,113.93c-0.234,0-0.471-0.022-0.705-0.065c-1.127-0.21-2.104-0.909-2.663-1.91L120.351,5.747    c-0.908-1.625-0.529-3.666,0.901-4.855c1.432-1.189,3.509-1.188,4.938,0.004l93.522,77.934c0.881,0.734,1.39,1.822,1.39,2.969    c-0.002,1.146-0.514,2.234-1.396,2.967l-34.073,28.275C184.937,113.619,184.062,113.93,183.169,113.93z M137.282,20.188    l46.99,83.949l26.932-22.35L137.282,20.188z" />
	</g>
	<g>
		<path fill="#FCDA00" d="M38.169,128.182c-1.365,0-2.643-0.726-3.338-1.924c-0.76-1.309-0.685-2.938,0.191-4.173L120.571,1.626    c0.767-1.079,2.033-1.695,3.354-1.619c1.321,0.07,2.515,0.813,3.162,1.969l59.45,106.208c0.637,1.137,0.656,2.518,0.053,3.672    c-0.604,1.155-1.748,1.929-3.044,2.056L38.548,128.163C38.421,128.175,38.294,128.182,38.169,128.182z M123.331,11.073    L46.222,119.651l130.696-12.847L123.331,11.073z" />
	</g>
	<g>
		<path fill="#FCDA00" d="M38.173,128.182c-0.211,0-0.422-0.018-0.633-0.052c-1.457-0.242-2.648-1.295-3.068-2.711l-20.689-69.7    c-0.539-1.82,0.324-3.763,2.037-4.581l106.24-50.76c1.586-0.757,3.485-0.348,4.618,0.998c1.132,1.346,1.212,3.287,0.192,4.721    L41.319,126.556C40.589,127.585,39.409,128.182,38.173,128.182z M22.122,56.683l17.494,58.938l72.342-101.859L22.122,56.683z" />
	</g>
	<g>
		<path fill="#FCDA00" d="M3.86,173.204c-0.486,0-0.978-0.092-1.448-0.282c-1.613-0.654-2.589-2.306-2.386-4.034L13.649,54.165    c0.217-1.818,1.682-3.235,3.506-3.391c1.82-0.148,3.508,0.991,4.029,2.748l20.688,69.7c0.351,1.181,0.116,2.458-0.631,3.438    L6.931,171.683C6.185,172.663,5.038,173.204,3.86,173.204z M19.109,73.665l-9.747,82.092l24.551-32.217L19.109,73.665z" />
	</g>
	<g>
		<path fill="#FCDA00" d="M87.554,247.109c-0.917,0-1.83-0.325-2.557-0.968L1.306,172.237c-1.518-1.34-1.742-3.625-0.516-5.233    l34.312-45.023c0.837-1.099,2.194-1.667,3.566-1.488c1.37,0.179,2.54,1.073,3.069,2.349l49.381,118.928    c0.689,1.659,0.142,3.576-1.32,4.621C89.124,246.871,88.337,247.109,87.554,247.109z M9.108,168.827l68.469,60.462l-40.398-97.296    L9.108,168.827z" />
	</g>
	<g>
		<path fill="#FCDA00" d="M87.553,247.109c-0.309,0-0.62-0.037-0.926-0.113c-1.189-0.294-2.169-1.136-2.64-2.267L34.606,125.802    c-0.654-1.578-0.195-3.398,1.131-4.476c1.324-1.077,3.201-1.157,4.611-0.193l105.729,72.165c1,0.683,1.622,1.797,1.68,3.007    c0.057,1.212-0.459,2.379-1.391,3.152L90.019,246.22C89.317,246.801,88.444,247.109,87.553,247.109z M46.713,134.824    l42.399,102.113l48.381-40.151L46.713,134.824z" />
	</g>
	<g>
		<path fill="#FCDA00" d="M87.554,247.109c-1.379,0-2.691-0.741-3.385-2.003c-0.891-1.621-0.505-3.646,0.919-4.829l56.348-46.763    c0.869-0.719,2.013-1.024,3.123-0.832l57.755,9.998c1.75,0.303,3.068,1.762,3.192,3.533s-0.976,3.399-2.667,3.945L88.737,246.923    C88.346,247.05,87.946,247.109,87.554,247.109z M144.996,200.593l-39.573,32.842l80.135-25.819L144.996,200.593z" />
	</g>
	<g>
		<path fill="#FCDA00" d="M143.9,200.348c-0.769,0-1.528-0.23-2.177-0.673L35.995,127.509c-1.341-0.915-1.966-2.572-1.562-4.145    c0.402-1.574,1.746-2.727,3.361-2.885l145-14.252c1.375-0.132,2.714,0.474,3.518,1.596c0.802,1.121,0.945,2.586,0.374,3.843    l-39.271,86.417c-0.472,1.038-1.377,1.814-2.475,2.121C144.599,200.299,144.249,200.348,143.9,200.348z M49.125,127.123    l93.16,63.587l34.603-76.145L49.125,127.123z" />
	</g>
</g>
</svg>
